<?xml version="1.0" encoding="utf-8"?>
<!-- Generator: Adobe Illustrator 27.5.0, SVG Export Plug-In . SVG Version: 6.00 Build 0)  -->
<svg version="1.1" xmlns="http://www.w3.org/2000/svg" xmlns:xlink="http://www.w3.org/1999/xlink" x="0px" y="0px"
	 viewBox="0 0 500 500" style="enable-background:new 0 0 500 500;" xml:space="preserve">
<g id="Floor">
	<ellipse id="Floor_4_" style="fill:#F5F5F5;" cx="271.972" cy="338.866" rx="214.896" ry="122.225"/>
</g>
<g id="Shadow_3_">
	<ellipse id="Shadow" style="fill:#E6E6E6;" cx="408.292" cy="363.528" rx="51.39" ry="32.217"/>
</g>
<g id="Plants">
	<g id="XMLID_771_">
		<g id="XMLID_17136_">
			<path id="XMLID_17135_" style="fill:#27DEBF;" d="M68.981,269.966c0,0-0.568-10.479-5.078-21.61
				c-4.51-11.131-13.18-22.345-23.168-24.459c-9.989-2.115-14.217,4.601-12.11,11.202c1.815,5.684,9.238,10.403,14.873,15.363
				c5.635,4.96,16.158,16.948,19.083,28.532l5.634,0.616L68.981,269.966z"/>
		</g>
		<g id="XMLID_774_" style="opacity:0.15;">
			<path id="XMLID_1103_" d="M68.981,269.966c0,0-0.568-10.479-5.078-21.61c-4.51-11.131-13.18-22.345-23.168-24.459
				c-9.989-2.115-14.217,4.601-12.11,11.202c1.815,5.684,9.238,10.403,14.873,15.363c5.635,4.96,16.158,16.948,19.083,28.532
				l5.634,0.616L68.981,269.966z"/>
		</g>
		<g id="XMLID_775_">
			<path id="XMLID_1003_" style="fill:#FFFFFF;" d="M65.134,275.184c-0.336,0-0.614-0.266-0.627-0.604
				c-1.048-29.117-29.53-45.399-29.818-45.56c-0.302-0.169-0.41-0.551-0.241-0.854c0.169-0.304,0.551-0.412,0.854-0.241
				c0.294,0.164,29.385,16.796,30.458,46.609c0.013,0.346-0.258,0.637-0.604,0.65C65.15,275.184,65.142,275.184,65.134,275.184z"/>
		</g>
		<g id="XMLID_773_">
			<path id="XMLID_16704_" style="fill:#27DEBF;" d="M73.493,321.259c0,0-5.824,3.681-14.922,2.115
				c-2.899-0.499-5.751-1.615-7.829-3.76c-2.348-2.423-2.723-4.861-3.385-8.102c-0.273-1.336-0.566-2.718-1.367-3.821
				c-1.947-2.679-5.839-2.631-9.076-3.33c-4.6-0.993-8.832-4.297-10.164-8.81c-1.331-4.514,0.827-10.016,5.189-11.783
				c-1.783-1.143-3.565-2.286-5.348-3.429c-1.622-1.04-3.261-2.094-4.577-3.5c-1.316-1.406-2.296-3.224-2.31-5.15
				c-0.021-2.842,2.111-5.377,4.703-6.541c2.592-1.164,5.555-1.18,8.378-0.852c2.849,0.331,5.659,0.993,8.357,1.966
				c0.758,0.274,1.536,0.577,2.34,0.526c1.059-0.066,1.972-0.727,2.857-1.312c6.122-4.041,16.088-3.736,19.373,3.884
				c0.483,1.121,0.771,2.32,1.285,3.427c1.905,4.101,7.258,2.868,10.711,4.787c2.246,1.248,3.595,3.738,4.024,6.271
				c0.686,4.056-0.444,8.686-1.193,12.699c-0.726,3.891-1.703,7.736-2.788,11.541c-0.893,3.135-1.868,6.246-2.912,9.334
				C74.613,318.086,74.13,320.856,73.493,321.259z"/>
		</g>
		<path id="XMLID_1649_" style="fill:#FFFFFF;" d="M77.155,311.876c-3.125-8.924-8.512-16.185-14.618-22.011
			c-0.065-0.142-0.182-0.256-0.336-0.318c-1.926-1.813-3.919-3.485-5.934-5.022c-1.409-8.451,1.99-15.869,2.024-15.943
			c0.147-0.314,0.011-0.688-0.302-0.834c-0.315-0.149-0.687-0.012-0.834,0.301c-0.142,0.302-3.276,7.132-2.303,15.419
			c-13.447-9.807-27.309-13.733-27.541-13.797c-0.332-0.087-0.679,0.105-0.771,0.439c-0.092,0.334,0.104,0.679,0.439,0.771
			c0.261,0.071,18.031,5.103,32.68,18.03c-8.985-1.572-19.724,2.77-20.219,2.974c-0.32,0.132-0.473,0.498-0.342,0.818
			c0.1,0.243,0.334,0.389,0.581,0.389c0.079,0,0.16-0.015,0.238-0.047c0.127-0.052,12.736-5.151,21.645-2.39
			c6.022,5.723,11.336,12.86,14.408,21.634c0.091,0.258,0.333,0.42,0.592,0.42c0.069,0,0.139-0.011,0.208-0.035
			C77.097,312.561,77.269,312.203,77.155,311.876z"/>
	</g>
</g>
<g id="Device">
	<g id="Laptop_2_">
		<g>
			<path id="XMLID_1610_" style="fill:#37474F;" d="M73.694,320.392c0,2.603,1.949,5.839,4.352,7.226l121.929,70.396
				c2.403,1.388,6.3,1.388,8.703,0l166.833-96.321c2.403-1.388,4.352-4.623,4.352-7.226c0-2.603-1.948-5.839-4.352-7.226
				l-121.93-70.396c-2.403-1.388-6.3-1.388-8.703,0L78.045,313.166C75.642,314.553,73.694,317.789,73.694,320.392z"/>
			<path id="XMLID_1608_" style="fill:#263238;" d="M204.329,389.635v9.417c-1.578,0-3.156-0.342-4.352-1.035L78.044,327.618
				c-2.402-1.387-4.352-4.623-4.352-7.226c0-2.442,1.718-5.437,3.909-6.944c-1.95,1.397-1.799,3.447,0.442,4.743l121.934,70.399
				C201.174,389.284,202.751,389.635,204.329,389.635z"/>
			<path id="XMLID_1606_" style="fill:#455A64;" d="M69.612,313.321c-2.254-1.302-4.082-4.607-4.082-7.382l-0.001-145.505
				c0-2.775,1.948-6.15,4.352-7.537l166.833-96.321c2.403-1.388,6.18-1.457,8.434-0.156c2.255,1.302,4.083,4.607,4.083,7.382
				v145.505c0,2.775-1.948,6.15-4.352,7.537L78.045,313.166C75.642,314.553,71.866,314.623,69.612,313.321z"/>
			<path id="XMLID_1604_" style="fill:#263238;" d="M77.531,313.428c-2.402,1.125-5.819,1.105-7.919-0.111
				c-2.251-1.296-4.08-4.603-4.08-7.376V160.43c0-1.387,0.482-2.924,1.276-4.281l8.16,4.703v0.01
				c-0.784,1.367-1.276,2.894-1.276,4.281v145.511C73.692,313.227,75.371,314.383,77.531,313.428z"/>
			<path id="XMLID_1603_" style="fill:#37474F;" d="M73.693,165.148v145.505c0,2.775,1.948,3.9,4.352,2.512l166.834-96.321
				c2.403-1.388,4.352-4.762,4.352-7.537V63.802c0-2.775-1.948-3.9-4.352-2.512L78.045,157.611
				C75.642,158.998,73.693,162.373,73.693,165.148z"/>
			<path id="XMLID_1602_" style="fill:#455A64;" d="M78.045,318.19l121.93,70.396c2.403,1.388,6.3,1.388,8.703,0l166.834-96.321
				c2.403-1.388,2.403-3.637,0-5.025l-121.93-70.396c-2.403-1.388-6.3-1.388-8.703,0L78.045,313.166
				C75.642,314.553,75.642,316.803,78.045,318.19z"/>
			<path id="XMLID_1601_" style="fill:#FAFAFA;" d="M80.386,165.686l160.849-92.842c1.442-0.832,2.611-0.158,2.611,1.507v125.958
				c0,1.665-1.169,3.69-2.611,4.522l-160.849,92.84c-1.442,0.832-2.611,0.158-2.611-1.508V170.208
				C77.775,168.543,78.944,166.518,80.386,165.686z"/>
			<path id="XMLID_1600_" style="fill:#37474F;" d="M92.198,314.423l154.858-89.406c1.202-0.694,3.15-0.694,4.352,0l7.92,4.573
				c1.202,0.694,1.202,1.818,0,2.512l-154.881,89.392c-1.202,0.694-3.15,0.694-4.352,0l-7.897-4.559
				C90.997,316.241,90.996,315.116,92.198,314.423z"/>
			<path id="XMLID_1599_" style="fill:#263238;" d="M112.612,326.207L267.468,236.8c1.202-0.694,3.15-0.694,4.352,0l48.718,28.128
				c1.202,0.694,1.201,1.819,0,2.512l-154.679,89.284c-1.202,0.694-3.152,0.697-4.356,0.007l-48.886-28.018
				C111.412,328.023,111.41,326.901,112.612,326.207z"/>
			<path id="XMLID_1270_" style="fill:#455A64;" d="M251.426,277.025l4.848-2.799c0.206-0.119,0.194-0.319-0.027-0.447l-5.607-3.237
				c-0.221-0.128-0.568-0.135-0.774-0.016l-4.849,2.799c-0.206,0.119-0.193,0.319,0.028,0.446l5.606,3.237
				C250.874,277.137,251.22,277.143,251.426,277.025z M241.858,265.902l-4.849,2.799c-0.206,0.119-0.193,0.319,0.028,0.447
				l5.606,3.237c0.221,0.128,0.568,0.135,0.773,0.016l4.849-2.8c0.206-0.119,0.194-0.319-0.027-0.446l-5.607-3.237
				C242.41,265.79,242.064,265.783,241.858,265.902z M226.193,274.946l-8.205,4.737c-0.206,0.118-0.193,0.319,0.027,0.446
				l5.607,3.237c0.221,0.128,0.568,0.134,0.773,0.016l8.205-4.737c0.206-0.119,0.194-0.319-0.027-0.447l-5.606-3.237
				C226.745,274.834,226.399,274.827,226.193,274.946z M234.771,269.993l-4.849,2.8c-0.205,0.119-0.193,0.319,0.028,0.446
				l5.607,3.237c0.221,0.128,0.567,0.135,0.773,0.016l4.849-2.799c0.206-0.119,0.194-0.319-0.027-0.447l-5.607-3.237
				C235.324,269.881,234.977,269.874,234.771,269.993z M215.75,280.975l-4.849,2.799c-0.206,0.119-0.194,0.319,0.027,0.447
				l5.607,3.237c0.221,0.128,0.567,0.135,0.773,0.016l4.849-2.8c0.206-0.119,0.193-0.319-0.028-0.446l-5.606-3.237
				C216.302,280.863,215.956,280.856,215.75,280.975z M208.664,285.067l-4.848,2.799c-0.206,0.119-0.194,0.319,0.027,0.447
				l5.607,3.237c0.221,0.128,0.567,0.135,0.773,0.016l4.849-2.799c0.206-0.119,0.194-0.319-0.028-0.447l-5.606-3.237
				C209.216,284.955,208.87,284.947,208.664,285.067z M230.717,298.23l4.849-2.8c0.205-0.119,0.193-0.319-0.028-0.446l-5.606-3.237
				c-0.221-0.128-0.568-0.135-0.773-0.016l-4.849,2.799c-0.206,0.119-0.194,0.319,0.027,0.447l5.607,3.237
				C230.164,298.342,230.511,298.349,230.717,298.23z M223.631,302.321l4.848-2.799c0.206-0.119,0.194-0.319-0.028-0.447
				l-5.606-3.237c-0.221-0.128-0.568-0.135-0.774-0.016l-4.848,2.799c-0.206,0.119-0.194,0.319,0.027,0.446l5.607,3.237
				C223.078,302.433,223.424,302.44,223.631,302.321z M216.544,306.412l4.849-2.8c0.206-0.119,0.194-0.318-0.028-0.446l-5.606-3.237
				c-0.221-0.128-0.568-0.135-0.774-0.016l-4.849,2.799c-0.206,0.119-0.194,0.319,0.028,0.447l5.606,3.237
				C215.992,306.524,216.338,306.531,216.544,306.412z M209.458,310.504l4.849-2.799c0.206-0.119,0.193-0.319-0.028-0.447
				l-5.606-3.237c-0.221-0.128-0.567-0.135-0.773-0.016l-4.849,2.799c-0.206,0.119-0.194,0.319,0.028,0.447l5.606,3.237
				C208.905,310.615,209.252,310.623,209.458,310.504z M244.34,281.116l4.848-2.799c0.206-0.119,0.194-0.319-0.027-0.446
				l-5.607-3.237c-0.221-0.128-0.567-0.134-0.773-0.016l-4.849,2.799c-0.206,0.119-0.194,0.319,0.027,0.447l5.606,3.237
				C243.787,281.228,244.133,281.235,244.34,281.116z M237.803,294.138l10.816-6.245c0.206-0.119,0.194-0.319-0.028-0.447
				l-13.616-7.861c-0.221-0.128-0.568-0.135-0.773-0.016l-5.594,3.23c-0.206,0.119-0.194,0.319,0.027,0.447l7.209,4.162
				c0.221,0.127,0.233,0.328,0.027,0.446l-4.475,2.584c-0.206,0.119-0.194,0.319,0.027,0.446l5.607,3.237
				C237.251,294.25,237.598,294.257,237.803,294.138z M201.577,289.158l-4.849,2.8c-0.206,0.119-0.194,0.319,0.028,0.446
				l5.606,3.237c0.221,0.128,0.567,0.134,0.773,0.016l4.849-2.799c0.206-0.119,0.194-0.319-0.028-0.447l-5.606-3.237
				C202.13,289.046,201.783,289.039,201.577,289.158z M194.491,293.249l-4.849,2.799c-0.206,0.119-0.194,0.319,0.028,0.447
				l5.606,3.237c0.221,0.128,0.568,0.135,0.774,0.016l4.848-2.799c0.206-0.119,0.194-0.319-0.027-0.446l-5.607-3.237
				C195.043,293.138,194.697,293.13,194.491,293.249z M159.079,339.127c0.221,0.128,0.567,0.135,0.773,0.016l4.849-2.799
				c0.206-0.119,0.193-0.319-0.028-0.447l-5.606-3.237c-0.221-0.128-0.568-0.135-0.773-0.016l-4.849,2.799
				c-0.206,0.119-0.193,0.319,0.027,0.447L159.079,339.127z M137.8,325.98l-4.848,2.799c-0.206,0.119-0.194,0.319,0.028,0.447
				l5.606,3.237c0.221,0.128,0.568,0.135,0.773,0.016l4.849-2.799c0.206-0.119,0.193-0.319-0.028-0.447l-5.606-3.237
				C138.352,325.868,138.006,325.861,137.8,325.98z M149.205,335.579c0.221,0.128,0.568,0.135,0.773,0.016l4.849-2.8
				c0.206-0.119,0.193-0.319-0.028-0.446l-5.606-3.237c-0.221-0.128-0.567-0.135-0.773-0.016l-4.848,2.799
				c-0.206,0.119-0.194,0.319,0.028,0.447L149.205,335.579z M171.592,341.614l4.848-2.799c0.206-0.119,0.194-0.319-0.027-0.447
				l-5.607-3.237c-0.221-0.127-0.567-0.135-0.774-0.015l-4.849,2.799c-0.205,0.118-0.193,0.319,0.028,0.447l5.606,3.236
				C171.04,341.725,171.386,341.733,171.592,341.614z M163.732,345.689c0.221,0.128,0.568,0.135,0.773,0.016l4.849-2.8
				c0.206-0.119,0.194-0.318-0.027-0.446l-5.607-3.237c-0.221-0.128-0.567-0.135-0.773-0.016l-4.849,2.8
				c-0.206,0.119-0.194,0.318,0.028,0.446L163.732,345.689z M144.886,321.888l-4.849,2.799c-0.206,0.119-0.193,0.319,0.028,0.447
				l5.606,3.237c0.221,0.128,0.567,0.135,0.773,0.016l4.849-2.8c0.206-0.119,0.194-0.319-0.028-0.446l-5.606-3.237
				C145.439,321.777,145.092,321.77,144.886,321.888z M180.318,301.432l-4.849,2.799c-0.206,0.119-0.194,0.319,0.028,0.447
				l5.606,3.237c0.221,0.128,0.567,0.135,0.773,0.016l4.849-2.8c0.206-0.119,0.194-0.319-0.027-0.446l-5.607-3.237
				C180.87,301.32,180.524,301.313,180.318,301.432z M151.973,317.797l-4.849,2.799c-0.206,0.119-0.193,0.319,0.028,0.446
				l5.606,3.237c0.221,0.128,0.567,0.135,0.774,0.016l4.849-2.799c0.206-0.119,0.193-0.319-0.028-0.447l-5.606-3.237
				C152.525,317.685,152.179,317.678,151.973,317.797z M187.404,297.34l-4.848,2.8c-0.206,0.119-0.194,0.319,0.028,0.446
				l5.606,3.237c0.221,0.128,0.567,0.135,0.773,0.016l4.848-2.799c0.206-0.119,0.194-0.319-0.027-0.447l-5.607-3.237
				C187.957,297.228,187.61,297.222,187.404,297.34z M173.232,305.523l-4.848,2.799c-0.206,0.119-0.194,0.319,0.027,0.447
				l5.607,3.237c0.221,0.128,0.567,0.135,0.774,0.016l4.848-2.799c0.206-0.119,0.194-0.319-0.027-0.447l-5.607-3.237
				C173.784,305.411,173.438,305.404,173.232,305.523z M166.145,309.615l-4.848,2.799c-0.206,0.119-0.194,0.319,0.027,0.446
				l5.607,3.237c0.221,0.128,0.567,0.134,0.773,0.016l4.849-2.799c0.206-0.119,0.193-0.319-0.028-0.447l-5.606-3.237
				C166.698,309.503,166.351,309.496,166.145,309.615z M159.059,313.706l-4.848,2.799c-0.206,0.119-0.194,0.319,0.027,0.447
				l5.607,3.237c0.221,0.128,0.567,0.135,0.773,0.016l4.849-2.8c0.206-0.119,0.193-0.319-0.028-0.447l-5.606-3.237
				C159.611,313.594,159.265,313.587,159.059,313.706z M195.285,318.686l4.848-2.799c0.206-0.119,0.194-0.319-0.027-0.446
				l-5.607-3.237c-0.221-0.128-0.568-0.135-0.773-0.016l-4.849,2.799c-0.206,0.119-0.193,0.319,0.028,0.447l5.606,3.237
				C194.733,318.798,195.079,318.805,195.285,318.686z M257.522,256.858l-4.848,2.799c-0.206,0.119-0.193,0.319,0.027,0.446
				l5.607,3.237c0.221,0.128,0.568,0.135,0.774,0.016l4.849-2.799c0.206-0.119,0.193-0.319-0.028-0.447l-5.607-3.237
				C258.075,256.746,257.729,256.739,257.522,256.858z M248.944,261.81l-4.849,2.799c-0.206,0.119-0.193,0.319,0.028,0.446
				l5.606,3.237c0.221,0.128,0.568,0.135,0.773,0.016l4.849-2.799c0.206-0.119,0.194-0.319-0.027-0.447l-5.607-3.237
				C249.496,261.699,249.15,261.692,248.944,261.81z M264.609,252.767l-4.848,2.799c-0.206,0.119-0.194,0.319,0.027,0.447
				l5.607,3.237c0.221,0.128,0.568,0.135,0.773,0.016l4.849-2.799c0.206-0.119,0.194-0.319-0.027-0.447l-5.606-3.237
				C265.161,252.655,264.815,252.648,264.609,252.767z M227.929,290.591l4.848-2.799c0.206-0.119,0.194-0.319-0.028-0.447
				l-5.606-3.237c-0.221-0.128-0.568-0.134-0.774-0.016l-4.849,2.799c-0.206,0.119-0.193,0.319,0.027,0.446l5.607,3.237
				C227.377,290.703,227.723,290.709,227.929,290.591z M272.469,248.691c-0.221-0.128-0.568-0.135-0.774-0.016l-4.848,2.799
				c-0.206,0.119-0.194,0.319,0.027,0.447l5.607,3.237c0.221,0.128,0.567,0.135,0.773,0.016l4.849-2.8
				c0.206-0.119,0.194-0.319-0.027-0.446L272.469,248.691z M202.371,314.595l4.848-2.799c0.206-0.119,0.194-0.319-0.028-0.447
				l-5.606-3.237c-0.221-0.128-0.567-0.135-0.773-0.016l-4.849,2.8c-0.206,0.119-0.194,0.319,0.028,0.446l5.606,3.237
				C201.819,314.707,202.165,314.714,202.371,314.595z M289.273,264.422l4.848-2.799c0.206-0.119,0.194-0.319-0.027-0.447
				l-5.607-3.236c-0.221-0.128-0.567-0.135-0.773-0.016l-4.848,2.799c-0.206,0.119-0.194,0.319,0.028,0.447l5.606,3.236
				C288.72,264.534,289.066,264.541,289.273,264.422z M274.177,263.89l4.848-2.8c0.206-0.119,0.194-0.318-0.028-0.446l-5.607-3.237
				c-0.221-0.128-0.567-0.135-0.773-0.016l-4.849,2.799c-0.206,0.119-0.194,0.319,0.027,0.447l5.607,3.237
				C273.625,264.001,273.971,264.008,274.177,263.89z M280.478,253.315c-0.221-0.128-0.568-0.135-0.773-0.016l-4.849,2.8
				c-0.206,0.119-0.194,0.319,0.028,0.446l5.607,3.237c0.221,0.128,0.568,0.134,0.773,0.016l4.849-2.799
				c0.206-0.119,0.194-0.319-0.027-0.447L280.478,253.315z M281.97,252.454l13.616,7.861c0.221,0.128,0.567,0.135,0.773,0.016
				l4.848-2.799c0.206-0.119,0.194-0.319-0.027-0.447l-13.616-7.861c-0.221-0.128-0.568-0.135-0.774-0.016l-4.849,2.799
				C281.737,252.126,281.749,252.326,281.97,252.454z M265.532,261.482l-4.849,2.799c-0.206,0.119-0.194,0.319,0.027,0.447
				l5.607,3.237c0.221,0.128,0.567,0.135,0.773,0.016l4.849-2.799c0.206-0.119,0.194-0.319-0.027-0.447l-5.606-3.237
				C266.084,261.37,265.737,261.363,265.532,261.482z M212.197,292.274l-4.849,2.8c-0.206,0.119-0.194,0.319,0.028,0.446
				l5.606,3.237c0.221,0.128,0.567,0.135,0.773,0.016l4.849-2.799c0.206-0.119,0.193-0.319-0.028-0.447l-5.606-3.237
				C212.749,292.163,212.404,292.156,212.197,292.274z M281.413,268.498c0.221,0.128,0.567,0.135,0.774,0.016l4.849-2.799
				c0.206-0.119,0.193-0.319-0.028-0.447l-5.607-3.237c-0.221-0.128-0.567-0.135-0.773-0.016l-4.849,2.8
				c-0.206,0.118-0.194,0.319,0.027,0.446L281.413,268.498z M219.284,288.183l-4.849,2.799c-0.206,0.119-0.193,0.319,0.028,0.447
				l5.606,3.237c0.221,0.128,0.567,0.135,0.773,0.016l4.849-2.8c0.206-0.119,0.194-0.319-0.028-0.446l-5.606-3.237
				C219.836,288.072,219.49,288.065,219.284,288.183z M166.166,335.035c0.221,0.128,0.568,0.135,0.773,0.016l4.849-2.799
				c0.205-0.119,0.193-0.319-0.028-0.447l-5.607-3.237c-0.221-0.128-0.567-0.135-0.773-0.016l-4.848,2.8
				c-0.206,0.119-0.193,0.319,0.027,0.446L166.166,335.035z M155.506,325.005l-4.849,2.8c-0.206,0.119-0.193,0.319,0.028,0.446
				l5.606,3.237c0.221,0.128,0.567,0.135,0.773,0.016l4.849-2.799c0.206-0.119,0.194-0.319-0.028-0.447l-5.606-3.237
				C156.059,324.893,155.712,324.887,155.506,325.005z M174.025,330.96l4.848-2.799c0.206-0.119,0.194-0.319-0.027-0.447
				l-5.607-3.237c-0.221-0.128-0.568-0.135-0.774-0.016l-4.848,2.799c-0.206,0.119-0.194,0.319,0.028,0.447l5.607,3.237
				C173.473,331.072,173.82,331.079,174.025,330.96z M181.112,326.869l4.849-2.799c0.206-0.119,0.194-0.319-0.027-0.447
				l-5.607-3.237c-0.221-0.128-0.567-0.135-0.773-0.016l-4.848,2.799c-0.206,0.119-0.194,0.319,0.028,0.447l5.607,3.237
				C180.559,326.981,180.906,326.988,181.112,326.869z M188.198,322.777l4.849-2.799c0.206-0.119,0.193-0.319-0.027-0.447
				l-5.607-3.237c-0.221-0.127-0.567-0.135-0.773-0.015l-4.849,2.799c-0.206,0.119-0.194,0.319,0.028,0.446l5.606,3.237
				C187.646,322.889,187.992,322.897,188.198,322.777z M162.593,320.914l-4.849,2.799c-0.206,0.119-0.194,0.319,0.027,0.447
				l5.607,3.237c0.221,0.128,0.567,0.135,0.773,0.016l4.849-2.799c0.206-0.119,0.194-0.319-0.028-0.447l-5.607-3.237
				C163.145,320.802,162.799,320.795,162.593,320.914z M169.679,316.823l-4.849,2.799c-0.206,0.119-0.194,0.319,0.027,0.447
				l5.607,3.237c0.221,0.128,0.568,0.134,0.773,0.016l4.849-2.8c0.206-0.119,0.194-0.318-0.028-0.446l-5.606-3.237
				C170.231,316.711,169.885,316.704,169.679,316.823z M198.025,300.458l-4.849,2.799c-0.206,0.119-0.194,0.319,0.028,0.447
				l5.606,3.237c0.221,0.128,0.567,0.135,0.773,0.016l4.848-2.799c0.206-0.119,0.194-0.319-0.027-0.447l-5.607-3.237
				C198.577,300.346,198.231,300.338,198.025,300.458z M190.938,304.549l-4.849,2.799c-0.206,0.119-0.194,0.319,0.028,0.446
				l5.606,3.237c0.221,0.128,0.568,0.134,0.773,0.016l4.849-2.799c0.206-0.119,0.194-0.319-0.027-0.447l-5.607-3.237
				C191.49,304.437,191.144,304.43,190.938,304.549z M205.111,296.366l-4.848,2.799c-0.206,0.119-0.194,0.319,0.027,0.447
				l5.606,3.237c0.221,0.128,0.568,0.135,0.774,0.016l4.849-2.8c0.206-0.119,0.193-0.318-0.028-0.446l-5.606-3.237
				C205.663,296.254,205.317,296.247,205.111,296.366z M176.766,312.731l-4.849,2.8c-0.206,0.119-0.194,0.319,0.027,0.446
				l5.607,3.237c0.221,0.128,0.567,0.135,0.773,0.016l4.848-2.799c0.206-0.119,0.194-0.319-0.027-0.447l-5.607-3.237
				C177.318,312.62,176.971,312.612,176.766,312.731z M183.852,308.64l-4.848,2.799c-0.206,0.119-0.194,0.319,0.028,0.447
				l5.607,3.237c0.221,0.128,0.567,0.135,0.773,0.016l4.848-2.8c0.206-0.119,0.194-0.319-0.027-0.446l-5.607-3.237
				C184.404,308.528,184.058,308.521,183.852,308.64z M178.678,337.522l4.848-2.799c0.206-0.119,0.193-0.318-0.027-0.446
				l-5.607-3.237c-0.221-0.128-0.567-0.135-0.773-0.016l-4.849,2.799c-0.206,0.119-0.194,0.319,0.028,0.447l5.606,3.237
				C178.126,337.634,178.472,337.641,178.678,337.522z M137.094,333.324l-5.607-3.237c-0.221-0.128-0.567-0.135-0.773-0.016
				l-4.848,2.799c-0.206,0.119-0.194,0.318,0.028,0.446l5.606,3.237c0.222,0.128,0.568,0.134,0.774,0.016l4.849-2.799
				C137.327,333.652,137.314,333.452,137.094,333.324z M147.713,336.441l-5.606-3.237c-0.221-0.128-0.567-0.135-0.773-0.016
				l-7.459,4.306c-0.206,0.119-0.194,0.319,0.028,0.447l5.606,3.237c0.221,0.128,0.567,0.135,0.773,0.016l7.459-4.307
				C147.947,336.768,147.934,336.568,147.713,336.441z M128.491,327.066l-5.606-3.237c-0.221-0.128-0.567-0.135-0.773-0.016
				l-5.968,3.445c-0.206,0.119-0.194,0.319,0.028,0.446l5.606,3.237c0.221,0.128,0.568,0.134,0.773,0.016l5.968-3.445
				C128.725,327.394,128.713,327.193,128.491,327.066z M133.067,324.424c0.221,0.128,0.567,0.135,0.773,0.016l4.848-2.8
				c0.206-0.119,0.194-0.318-0.027-0.446l-5.607-3.237c-0.221-0.128-0.568-0.135-0.774-0.016l-4.848,2.799
				c-0.206,0.119-0.194,0.319,0.027,0.447L133.067,324.424z M157.587,339.988l-5.606-3.237c-0.221-0.127-0.568-0.134-0.773-0.015
				l-9.324,5.383c-0.206,0.119-0.194,0.319,0.028,0.447l5.606,3.237c0.221,0.128,0.567,0.134,0.773,0.016l9.324-5.383
				C157.821,340.316,157.809,340.116,157.587,339.988z M162.24,346.55l-5.607-3.237c-0.221-0.128-0.567-0.135-0.773-0.016
				l-5.968,3.445c-0.206,0.119-0.194,0.319,0.028,0.446l5.606,3.237c0.221,0.128,0.567,0.134,0.773,0.016l5.968-3.445
				C162.473,346.878,162.461,346.678,162.24,346.55z M185.755,294.005c0.221,0.128,0.567,0.135,0.773,0.016l4.849-2.8
				c0.206-0.119,0.194-0.319-0.027-0.446l-5.606-3.237c-0.221-0.128-0.568-0.135-0.774-0.016l-4.848,2.799
				c-0.206,0.119-0.194,0.319,0.027,0.447L185.755,294.005z M171.582,302.188c0.222,0.128,0.568,0.134,0.774,0.016l4.849-2.8
				c0.206-0.119,0.193-0.319-0.028-0.446l-5.606-3.237c-0.221-0.128-0.567-0.135-0.773-0.016l-4.848,2.799
				c-0.206,0.119-0.194,0.319,0.027,0.447L171.582,302.188z M140.153,320.333c0.221,0.128,0.568,0.135,0.773,0.016l4.849-2.799
				c0.206-0.119,0.194-0.319-0.027-0.447l-5.607-3.237c-0.221-0.127-0.567-0.135-0.773-0.016l-4.849,2.799
				c-0.206,0.119-0.194,0.319,0.028,0.447L140.153,320.333z M178.668,298.096c0.221,0.128,0.568,0.135,0.773,0.016l4.849-2.799
				c0.206-0.119,0.193-0.319-0.028-0.447l-5.606-3.237c-0.221-0.127-0.567-0.135-0.773-0.016l-4.849,2.799
				c-0.206,0.119-0.194,0.319,0.027,0.447L178.668,298.096z M164.495,306.279c0.221,0.127,0.567,0.135,0.773,0.015l4.848-2.799
				c0.206-0.119,0.194-0.319-0.028-0.447l-5.606-3.237c-0.221-0.128-0.567-0.135-0.773-0.016l-4.849,2.799
				c-0.206,0.119-0.193,0.319,0.028,0.447L164.495,306.279z M166.135,347.077c-0.222-0.128-0.568-0.135-0.774-0.016l-7.459,4.306
				c-0.206,0.119-0.194,0.319,0.028,0.447l5.607,3.237c0.221,0.128,0.567,0.135,0.773,0.016l7.459-4.307
				c0.206-0.119,0.193-0.319-0.028-0.447L166.135,347.077z M154.326,312.15c0.221,0.128,0.567,0.135,0.773,0.016l4.848-2.799
				c0.206-0.119,0.194-0.319-0.027-0.447l-5.606-3.237c-0.221-0.128-0.568-0.135-0.774-0.016l-4.848,2.799
				c-0.206,0.119-0.194,0.319,0.027,0.446L154.326,312.15z M147.239,316.242c0.221,0.128,0.567,0.135,0.773,0.016l4.849-2.8
				c0.206-0.119,0.194-0.319-0.027-0.446l-5.607-3.237c-0.221-0.128-0.568-0.135-0.773-0.016l-4.849,2.799
				c-0.206,0.119-0.193,0.319,0.028,0.447L147.239,316.242z M297.419,271.279c-0.221-0.128-0.567-0.135-0.773-0.016l-11.935,6.891
				c-0.206,0.119-0.194,0.319,0.027,0.447l5.607,3.237c0.221,0.128,0.567,0.135,0.773,0.016l11.935-6.891
				c0.206-0.119,0.194-0.319-0.027-0.446L297.419,271.279z M281.755,280.323c-0.221-0.128-0.567-0.135-0.773-0.016l-4.849,2.799
				c-0.206,0.119-0.194,0.319,0.028,0.447l5.606,3.237c0.221,0.127,0.568,0.135,0.774,0.015l4.848-2.799
				c0.206-0.118,0.194-0.319-0.028-0.447L281.755,280.323z M185.765,333.431l4.849-2.799c0.206-0.119,0.193-0.319-0.028-0.447
				l-5.606-3.237c-0.221-0.128-0.567-0.135-0.773-0.016l-4.849,2.799c-0.206,0.119-0.194,0.318,0.028,0.446l5.606,3.237
				C185.212,333.543,185.559,333.55,185.765,333.431z M267.582,288.506c-0.221-0.128-0.568-0.135-0.773-0.016l-4.849,2.799
				c-0.206,0.119-0.194,0.319,0.028,0.447l5.606,3.237c0.221,0.128,0.567,0.134,0.773,0.016l4.849-2.8
				c0.206-0.119,0.194-0.319-0.027-0.446L267.582,288.506z M304.506,267.188c-0.221-0.128-0.568-0.135-0.773-0.016l-4.849,2.8
				c-0.206,0.119-0.194,0.319,0.028,0.446l5.606,3.237c0.221,0.128,0.568,0.135,0.773,0.016l4.849-2.799
				c0.206-0.119,0.194-0.319-0.027-0.447L304.506,267.188z M317.199,266.334l-13.616-7.862c-0.221-0.128-0.567-0.135-0.773-0.016
				l-4.849,2.8c-0.206,0.119-0.194,0.319,0.028,0.446l13.616,7.862c0.221,0.128,0.567,0.135,0.773,0.016l4.849-2.8
				C317.432,266.661,317.42,266.461,317.199,266.334z M241.101,303.794c-0.221-0.128-0.568-0.134-0.773-0.016l-5.968,3.445
				c-0.206,0.119-0.194,0.319,0.028,0.447l5.606,3.237c0.221,0.128,0.568,0.135,0.774,0.016l5.967-3.445
				c0.206-0.119,0.194-0.319-0.027-0.446L241.101,303.794z M259.004,293.458c-0.221-0.128-0.568-0.135-0.773-0.016l-7.46,4.307
				c-0.206,0.119-0.193,0.318,0.027,0.446l5.607,3.237c0.221,0.128,0.567,0.135,0.773,0.016l7.459-4.307
				c0.206-0.119,0.194-0.319-0.028-0.446L259.004,293.458z M224.691,313.269c-0.221-0.128-0.568-0.135-0.774-0.016l-39.907,23.041
				c-0.206,0.119-0.194,0.319,0.027,0.446l5.607,3.237c0.221,0.128,0.567,0.135,0.773,0.016l39.907-23.04
				c0.206-0.119,0.194-0.319-0.028-0.447L224.691,313.269z M182.546,337.602c-0.221-0.128-0.568-0.135-0.773-0.016l-5.968,3.445
				c-0.206,0.119-0.193,0.319,0.028,0.447l5.606,3.237c0.221,0.127,0.568,0.134,0.773,0.015l5.968-3.445
				c0.205-0.119,0.193-0.319-0.028-0.446L182.546,337.602z M232.896,308.532c-0.221-0.128-0.567-0.135-0.773-0.016l-5.967,3.445
				c-0.206,0.119-0.194,0.319,0.027,0.447l5.607,3.236c0.221,0.128,0.568,0.135,0.774,0.017l5.967-3.446
				c0.206-0.119,0.194-0.318-0.028-0.446L232.896,308.532z M174.34,342.339c-0.221-0.128-0.567-0.135-0.773-0.016l-5.967,3.445
				c-0.206,0.119-0.193,0.319,0.028,0.447l5.606,3.237c0.221,0.128,0.567,0.135,0.773,0.016l5.967-3.445
				c0.206-0.119,0.194-0.319-0.027-0.447L174.34,342.339z M249.307,299.057c-0.221-0.128-0.567-0.135-0.773-0.016l-5.968,3.445
				c-0.206,0.119-0.193,0.319,0.028,0.446l5.607,3.237c0.221,0.128,0.568,0.135,0.773,0.016l5.968-3.445
				c0.206-0.119,0.194-0.319-0.028-0.447L249.307,299.057z M274.668,284.414c-0.221-0.128-0.568-0.135-0.774-0.016l-4.849,2.799
				c-0.206,0.119-0.193,0.318,0.028,0.447l5.606,3.237c0.221,0.128,0.567,0.135,0.773,0.016l4.849-2.799
				c0.206-0.119,0.193-0.319-0.027-0.447L274.668,284.414z M290.195,273.138l4.848-2.799c0.206-0.119,0.194-0.319-0.027-0.447
				l-5.607-3.237c-0.221-0.128-0.567-0.135-0.773-0.016l-4.849,2.799c-0.206,0.119-0.194,0.319,0.028,0.447l5.607,3.237
				C289.643,273.25,289.99,273.257,290.195,273.138z M258.512,272.933l4.849-2.799c0.206-0.119,0.194-0.319-0.027-0.447
				l-5.607-3.236c-0.221-0.128-0.567-0.135-0.773-0.016l-4.848,2.799c-0.206,0.119-0.194,0.319,0.028,0.447l5.606,3.237
				C257.96,273.045,258.306,273.052,258.512,272.933z M242.456,300.7l14.173-8.183c0.206-0.119,0.194-0.319-0.028-0.447
				l-5.606-3.237c-0.221-0.127-0.567-0.135-0.773-0.016l-14.173,8.183c-0.206,0.119-0.194,0.319,0.028,0.447l5.606,3.236
				C241.904,300.812,242.25,300.82,242.456,300.7z M282.336,277.213c0.221,0.128,0.568,0.135,0.773,0.016l4.849-2.799
				c0.206-0.119,0.194-0.319-0.027-0.447l-5.607-3.237c-0.221-0.128-0.567-0.135-0.773-0.016l-4.849,2.8
				c-0.206,0.118-0.193,0.319,0.028,0.446L282.336,277.213z M275.1,272.605l4.849-2.8c0.205-0.119,0.194-0.319-0.028-0.446
				l-5.606-3.237c-0.221-0.128-0.568-0.135-0.773-0.016l-4.849,2.799c-0.206,0.119-0.194,0.319,0.027,0.447l5.607,3.237
				C274.547,272.717,274.894,272.724,275.1,272.605z M235.369,304.792l4.849-2.8c0.206-0.119,0.194-0.318-0.028-0.446l-5.606-3.237
				c-0.221-0.128-0.567-0.135-0.774-0.016l-4.849,2.8c-0.206,0.119-0.193,0.318,0.028,0.446l5.606,3.237
				C234.817,304.904,235.163,304.911,235.369,304.792z M266.671,286.257c0.221,0.128,0.568,0.135,0.774,0.016l4.848-2.8
				c0.206-0.119,0.194-0.319-0.027-0.446l-5.607-3.237c-0.221-0.128-0.567-0.135-0.773-0.016l-4.849,2.799
				c-0.206,0.119-0.194,0.319,0.028,0.447L266.671,286.257z M199.938,325.249l4.848-2.8c0.206-0.119,0.193-0.318-0.028-0.446
				l-5.607-3.237c-0.221-0.128-0.567-0.135-0.773-0.016l-4.848,2.8c-0.206,0.119-0.193,0.318,0.027,0.446l5.607,3.237
				C199.385,325.36,199.731,325.367,199.938,325.249z M207.024,321.157l4.849-2.799c0.206-0.119,0.193-0.319-0.028-0.447
				l-5.607-3.237c-0.221-0.127-0.567-0.135-0.773-0.015l-4.849,2.799c-0.206,0.119-0.194,0.319,0.027,0.447l5.607,3.237
				C206.472,321.269,206.818,321.276,207.024,321.157z M192.851,329.34l4.848-2.799c0.206-0.119,0.194-0.319-0.028-0.447
				l-5.606-3.237c-0.221-0.128-0.568-0.135-0.774-0.016l-4.849,2.799c-0.206,0.119-0.193,0.319,0.027,0.447l5.607,3.237
				C192.299,329.451,192.645,329.459,192.851,329.34z M221.196,312.974l4.849-2.799c0.206-0.119,0.194-0.319-0.027-0.447
				l-5.606-3.237c-0.221-0.128-0.568-0.135-0.774-0.016l-4.849,2.8c-0.206,0.119-0.194,0.318,0.028,0.446l5.606,3.237
				C220.644,313.086,220.991,313.093,221.196,312.974z M214.11,317.065l4.849-2.799c0.206-0.119,0.194-0.318-0.027-0.446
				l-5.607-3.237c-0.221-0.128-0.567-0.135-0.774-0.016l-4.849,2.799c-0.206,0.119-0.194,0.319,0.028,0.447l5.607,3.237
				C213.558,317.177,213.904,317.185,214.11,317.065z M228.283,308.883l4.849-2.799c0.206-0.119,0.193-0.319-0.027-0.447
				l-5.607-3.237c-0.221-0.128-0.568-0.135-0.773-0.016l-4.849,2.799c-0.206,0.119-0.193,0.319,0.028,0.447l5.606,3.237
				C227.731,308.995,228.077,309.002,228.283,308.883z M260.703,248.358c0.221,0.128,0.568,0.135,0.774,0.016l4.849-2.8
				c0.206-0.119,0.193-0.318-0.028-0.446l-1.492-0.862c-0.221-0.128-0.568-0.135-0.774-0.016l-4.849,2.8
				c-0.205,0.119-0.193,0.319,0.028,0.446L260.703,248.358z M225.837,270.864c0.221,0.128,0.567,0.135,0.773,0.016l4.849-2.799
				c0.206-0.119,0.194-0.319-0.028-0.447l-5.606-3.237c-0.221-0.128-0.568-0.135-0.774-0.016l-4.849,2.8
				c-0.206,0.119-0.194,0.319,0.027,0.447L225.837,270.864z M240.009,262.681c0.221,0.128,0.567,0.135,0.773,0.016l4.849-2.799
				c0.206-0.119,0.194-0.319-0.027-0.447l-5.607-3.237c-0.221-0.128-0.568-0.135-0.773-0.016l-4.849,2.799
				c-0.205,0.119-0.194,0.319,0.028,0.446L240.009,262.681z M217.183,275.86c0.221,0.128,0.567,0.135,0.773,0.016l4.849-2.799
				c0.206-0.119,0.193-0.319-0.028-0.447l-5.606-3.237c-0.221-0.127-0.568-0.135-0.773-0.015l-4.848,2.799
				c-0.206,0.119-0.194,0.319,0.027,0.447L217.183,275.86z M232.923,266.773c0.221,0.128,0.567,0.135,0.774,0.016l4.849-2.8
				c0.205-0.119,0.194-0.319-0.028-0.446l-5.607-3.237c-0.221-0.128-0.567-0.135-0.773-0.016l-4.849,2.799
				c-0.206,0.119-0.194,0.319,0.027,0.447L232.923,266.773z M203.01,284.043c0.221,0.127,0.567,0.135,0.773,0.015l4.848-2.799
				c0.206-0.119,0.194-0.319-0.027-0.447l-5.607-3.236c-0.221-0.128-0.567-0.135-0.774-0.016l-4.849,2.799
				c-0.206,0.119-0.193,0.319,0.028,0.447L203.01,284.043z M210.097,279.951c0.221,0.128,0.568,0.134,0.774,0.016l4.849-2.799
				c0.206-0.119,0.194-0.318-0.028-0.446l-5.606-3.237c-0.221-0.128-0.567-0.134-0.773-0.016l-4.848,2.799
				c-0.206,0.119-0.194,0.319,0.027,0.447L210.097,279.951z M246.53,256.541c0.221,0.128,0.567,0.135,0.774,0.016l4.849-2.8
				c0.206-0.118,0.193-0.318-0.027-0.446l-1.493-0.862c-0.221-0.128-0.567-0.135-0.773-0.016l-4.849,2.8
				c-0.206,0.119-0.194,0.318,0.027,0.446L246.53,256.541z M267.789,244.267c0.221,0.128,0.568,0.135,0.773,0.016l4.849-2.799
				c0.206-0.119,0.194-0.319-0.028-0.447l-1.492-0.862c-0.221-0.127-0.567-0.135-0.773-0.015l-4.849,2.799
				c-0.206,0.119-0.194,0.319,0.028,0.447L267.789,244.267z M279.567,251.067c0.221,0.128,0.568,0.135,0.774,0.016l4.849-2.799
				c0.206-0.119,0.194-0.319-0.027-0.447l-5.607-3.237c-0.221-0.128-0.567-0.135-0.773-0.016l-4.849,2.8
				c-0.206,0.119-0.194,0.319,0.028,0.446L279.567,251.067z M297.282,269.047l4.849-2.8c0.206-0.118,0.194-0.318-0.027-0.446
				l-5.607-3.237c-0.221-0.128-0.568-0.135-0.774-0.016l-4.849,2.799c-0.206,0.119-0.194,0.319,0.028,0.447l5.606,3.237
				C296.729,269.158,297.076,269.165,297.282,269.047z M253.617,252.449c0.221,0.128,0.567,0.135,0.773,0.016l4.849-2.799
				c0.206-0.119,0.194-0.319-0.028-0.447l-1.492-0.861c-0.221-0.128-0.568-0.135-0.773-0.016l-4.849,2.799
				c-0.206,0.119-0.194,0.319,0.028,0.447L253.617,252.449z M195.924,288.134c0.221,0.128,0.568,0.135,0.773,0.016l4.848-2.799
				c0.206-0.119,0.194-0.319-0.027-0.447l-5.607-3.237c-0.221-0.128-0.568-0.135-0.773-0.016l-4.849,2.8
				c-0.205,0.119-0.193,0.319,0.028,0.446L195.924,288.134z"/>
			<path id="XMLID_1269_" style="fill:#263238;" d="M227.35,330.669l47.847-27.625c1.442-0.832,3.78-0.832,5.222,0l27.436,15.84
				c1.442,0.833,1.442,2.182,0,3.015l-47.848,27.625c-1.442,0.833-3.78,0.832-5.222,0l-27.436-15.84
				C225.908,332.852,225.908,331.502,227.35,330.669z"/>
		</g>
		<g id="Window">
			<path id="XMLID_1911_" style="fill:#27DEBF;" d="M237.814,87.224v7.305l-108.91,62.877c-0.751,0.436-1.364,0.082-1.364-0.789
				l0.082-2.617c0,0-1.955-0.721-2.007-0.618l-32.612,18.829c-0.758,0.436-1.37,1.496-1.37,2.368v2.766
				c0,0.871-0.612,1.932-1.364,2.368l-3.763,2.172v-7.305c0-0.871,0.613-1.932,1.364-2.368l148.58-85.777
				C237.202,85.999,237.814,86.353,237.814,87.224z"/>
			<g id="XMLID_1895_">
				<path id="XMLID_1910_" style="fill:#EBEBEB;" d="M237.82,196.677c0,0.871-0.613,1.932-1.37,2.368l-148.58,85.777
					c-0.751,0.436-1.364,0.082-1.364-0.789V181.884l3.763-2.172c0.751-0.436,1.976-7.065,2.734-7.501l32.612-18.829
					c0.758-0.436,2.537,4.459,3.289,4.024l108.91-62.877v8.89L237.82,196.677z"/>
			</g>
			<g id="XMLID_1668_">
				<path id="XMLID_1894_" style="fill:#FAFAFA;" d="M93.003,209.88l65.254-37.712c0.755-0.436,1.367-0.083,1.367,0.789v64.14
					c0,0.872-0.612,1.932-1.367,2.368l-65.254,37.711c-0.755,0.436-1.367,0.083-1.367-0.789l0-64.139
					C91.636,211.376,92.248,210.316,93.003,209.88z"/>
			</g>
			<g id="XMLID_1627_">
				<path id="XMLID_1636_" style="fill:#455A64;" d="M93.002,192.942l138.324-79.863c0.755-0.436,1.367-0.083,1.367,0.789
					l-0.001,9.608c0,0.872-0.612,1.932-1.367,2.368L93.002,205.706c-0.755,0.436-1.367,0.083-1.367-0.789l0-9.607
					C91.635,194.438,92.247,193.378,93.002,192.942z"/>
				<g id="XMLID_1628_">
					<path id="XMLID_1635_" style="fill:#FAFAFA;" d="M181.399,149.516l0,2.548c0,0.521,0.369,0.734,0.82,0.473l40.215-23.218
						l0-4.442l-40.215,23.218C181.768,148.356,181.399,148.995,181.399,149.516z"/>
					<path id="XMLID_1634_" style="fill:#27DEBF;" d="M226.744,122.39c0.453-0.262,0.82-0.049,0.82,0.473v2.548
						c0,0.523-0.367,1.159-0.82,1.421l-4.309,2.488l0-4.442L226.744,122.39z"/>
					<path id="XMLID_1630_" style="fill:#FAFAFA;" d="M226.425,125.884l-0.481-0.15c0.049-0.204,0.077-0.414,0.077-0.619
						c0-0.492-0.16-0.866-0.438-1.027c-0.207-0.119-0.456-0.108-0.701,0.034c-0.538,0.311-0.96,1.189-0.96,1.999
						c0,0.492,0.16,0.866,0.438,1.027c0.094,0.054,0.197,0.081,0.305,0.081c0.128,0,0.263-0.039,0.396-0.116
						c0.324-0.187,0.603-0.58,0.776-1.039l0.482,0.15c0.018,0.006,0.036,0.008,0.053,0.008c0.076,0,0.146-0.049,0.17-0.125
						C226.572,126.013,226.519,125.913,226.425,125.884z M224.883,126.805c-0.133,0.077-0.249,0.089-0.344,0.034
						c-0.16-0.093-0.26-0.367-0.26-0.718c0-0.671,0.358-1.445,0.782-1.69c0.078-0.045,0.15-0.068,0.216-0.068
						c0.046,0,0.089,0.011,0.128,0.034c0.16,0.093,0.26,0.367,0.26,0.718C225.665,125.786,225.307,126.56,224.883,126.805z"/>
				</g>
			</g>
			<path id="XMLID_1621_" style="fill:#E6E6E6;" d="M237.814,94.529v8.89L86.507,190.774v-8.89l2.81-1.628
				c0.751-0.436,1.004-1.098,1.364-2.368l0.953-3.31c0.301-1.149,0.613-1.932,1.37-2.368l32.612-18.829
				c0.758-0.436,1.349-0.484,1.925,0.469l1.169,2.122c0.429,0.741,0.643,1.177,1.395,0.741L237.814,94.529z"/>
			<g id="XMLID_1268_">
				<path id="XMLID_1616_" style="fill:#455A64;" d="M231.405,91.805c0.95-0.549,1.72-0.104,1.72,0.993
					c0,1.097-0.77,2.431-1.72,2.979c-0.95,0.548-1.72,0.104-1.72-0.993C229.685,93.688,230.455,92.354,231.405,91.805z"/>
				<path id="XMLID_1614_" style="fill:#455A64;" d="M225.212,95.376c0.95-0.549,1.72-0.104,1.72,0.993s-0.77,2.431-1.72,2.979
					c-0.95,0.548-1.72,0.104-1.72-0.993S224.262,95.924,225.212,95.376z"/>
				<path id="XMLID_1612_" style="fill:#455A64;" d="M219.019,98.946c0.95-0.549,1.72-0.104,1.72,0.993
					c0,1.097-0.77,2.431-1.72,2.979c-0.95,0.549-1.72,0.104-1.72-0.993C217.299,100.829,218.069,99.495,219.019,98.946z"/>
			</g>
			<path id="XMLID_1263_" style="opacity:0.5;fill:#455A64;" d="M92.777,182.525l-2.146,1.239l0.818-1.574
				c0.072-0.138,0.079-0.31,0.016-0.384c-0.063-0.075-0.172-0.022-0.243,0.115l-1.164,2.239c-0.001,0.003-0.002,0.006-0.003,0.009
				c-0.013,0.026-0.022,0.054-0.031,0.083c-0.003,0.009-0.007,0.018-0.009,0.027c-0.009,0.038-0.015,0.077-0.015,0.116
				c0,0.038,0.006,0.071,0.015,0.098c0.002,0.007,0.007,0.01,0.009,0.016c0.009,0.019,0.018,0.036,0.031,0.047
				c0.001,0.001,0.002,0.004,0.003,0.005l1.164,0.895c0.033,0.025,0.073,0.023,0.114,0c0.048-0.028,0.096-0.086,0.13-0.166
				c0.063-0.147,0.056-0.311-0.016-0.366l-0.818-0.629l2.146-1.239c0.095-0.055,0.173-0.218,0.173-0.365
				C92.95,182.544,92.873,182.47,92.777,182.525z"/>
			<path id="XMLID_1225_" style="opacity:0.5;fill:#455A64;" d="M94.57,181.49l2.146-1.239l-0.818-0.629
				c-0.072-0.055-0.079-0.219-0.016-0.366c0.063-0.147,0.172-0.221,0.243-0.166l1.164,0.895c0.001,0.001,0.002,0.004,0.003,0.005
				c0.013,0.011,0.022,0.028,0.031,0.047c0.003,0.006,0.007,0.01,0.009,0.016c0.009,0.027,0.015,0.06,0.015,0.098
				c0,0.038-0.006,0.077-0.015,0.116c-0.002,0.009-0.007,0.018-0.009,0.027c-0.009,0.029-0.018,0.057-0.031,0.083
				c-0.001,0.003-0.002,0.006-0.003,0.009l-1.164,2.239c-0.033,0.063-0.073,0.108-0.114,0.131c-0.048,0.028-0.096,0.025-0.13-0.016
				c-0.063-0.074-0.056-0.246,0.016-0.384l0.818-1.574l-2.146,1.239c-0.095,0.055-0.173-0.019-0.173-0.166
				C94.397,181.709,94.474,181.546,94.57,181.49z"/>
			<path id="XMLID_1224_" style="opacity:0.5;fill:#455A64;" d="M101.609,175.311c-0.013-0.129-0.126-0.113-0.183,0.027
				l-0.294,0.719c-0.501-0.055-1.109,0.435-1.519,1.303c-0.531,1.125-0.531,2.456,0,2.968c0.266,0.256,0.615,0.259,0.964,0.057
				c0.349-0.201,0.698-0.607,0.964-1.17c0.067-0.143,0.067-0.311,0-0.376c-0.067-0.065-0.177-0.002-0.244,0.141
				c-0.397,0.839-1.043,1.213-1.439,0.831c-0.397-0.382-0.397-1.376,0-2.216c0.282-0.598,0.689-0.951,1.043-0.973l-0.222,0.542
				c-0.058,0.141-0.005,0.271,0.085,0.213l0.875-0.571c0.061-0.04,0.107-0.152,0.098-0.24L101.609,175.311z"/>
			<path id="XMLID_1223_" style="opacity:0.5;fill:#455A64;" d="M124.674,157.44l0.782-1.656c0.093-0.196,0.093-0.426,0-0.515
				c-0.092-0.089-0.242-0.003-0.335,0.193l-0.782,1.656l-0.782-0.753c-0.093-0.089-0.242-0.003-0.335,0.193
				c-0.093,0.196-0.093,0.426,0,0.516l0.782,0.753l-0.782,1.656c-0.093,0.196-0.093,0.426,0,0.515
				c0.046,0.045,0.107,0.045,0.167,0.01c0.061-0.035,0.121-0.105,0.168-0.203l0.782-1.656l0.782,0.753
				c0.046,0.044,0.107,0.045,0.167,0.01s0.121-0.105,0.167-0.203c0.093-0.196,0.093-0.426,0-0.516L124.674,157.44z"/>
			<path id="XMLID_1222_" style="fill:#FAFAFA;" d="M104.457,177.346v-2.766c0-0.872,0.612-1.932,1.367-2.368l122.932-70.938
				c0.755-0.436,1.367-0.083,1.367,0.789l0,2.766c0,0.872-0.612,1.932-1.367,2.368l-122.931,70.938
				C105.069,178.572,104.457,178.218,104.457,177.346z"/>
			<path id="XMLID_1221_" style="fill:none;stroke:#E0E0E0;stroke-width:0.75;stroke-miterlimit:10;" d="M227.959,102.737
				l0.359,0.763c0.023,0.048,0.066,0.065,0.117,0.046l0.803-0.308c0.128-0.049,0.178,0.131,0.086,0.304l-0.581,1.09
				c-0.037,0.069-0.053,0.147-0.045,0.209l0.137,0.987c0.022,0.157-0.111,0.363-0.225,0.349l-0.718-0.089
				c-0.045-0.006-0.099,0.026-0.145,0.084l-0.718,0.918c-0.114,0.146-0.247,0.094-0.226-0.088l0.137-1.145
				c0.009-0.072-0.008-0.131-0.045-0.158l-0.581-0.42c-0.092-0.067-0.041-0.305,0.086-0.403l0.803-0.619
				c0.051-0.039,0.094-0.107,0.117-0.181l0.359-1.177C227.737,102.711,227.902,102.616,227.959,102.737z"/>
			<g id="XMLID_1116_" style="opacity:0.5;">
				<g id="XMLID_1123_">
					<path id="XMLID_1124_" style="fill:#455A64;" d="M231.735,100.938c-0.164,0-0.323-0.085-0.411-0.237
						c-0.131-0.227-0.053-0.516,0.173-0.647l3.847-2.221c0.228-0.131,0.516-0.053,0.647,0.173c0.131,0.227,0.053,0.516-0.173,0.647
						l-3.847,2.221C231.896,100.917,231.815,100.938,231.735,100.938z"/>
				</g>
				<g id="XMLID_1121_">
					<path id="XMLID_1122_" style="fill:#455A64;" d="M231.735,103.159c-0.164,0-0.323-0.085-0.411-0.237
						c-0.131-0.227-0.053-0.516,0.173-0.647l3.847-2.221c0.228-0.132,0.516-0.053,0.647,0.173c0.131,0.227,0.053,0.516-0.173,0.647
						l-3.847,2.221C231.896,103.139,231.815,103.159,231.735,103.159z"/>
				</g>
				<g id="XMLID_1119_">
					<path id="XMLID_1120_" style="fill:#455A64;" d="M231.735,105.381c-0.164,0-0.323-0.085-0.411-0.237
						c-0.131-0.227-0.053-0.516,0.173-0.647l3.847-2.221c0.228-0.132,0.516-0.053,0.647,0.173c0.131,0.227,0.053,0.516-0.173,0.647
						l-3.847,2.221C231.896,105.361,231.815,105.381,231.735,105.381z"/>
				</g>
			</g>
		</g>
		<g id="Question_Mark">
			<path id="XMLID_1713_" style="fill:#455A64;" d="M122.889,224.978c5.486-5.589,6.903-8.126,6.903-10.37
				c0-2.098-0.944-3.652-3.867-1.964c-2.278,1.315-3.505,3.024-4.319,5.3c-0.314,0.878-1.23,1.779-2.14,1.982l-3.808,0.849
				c-0.91,0.203-1.518-0.378-1.297-1.284c1.664-6.811,5.879-13.097,11.789-16.509c7.104-4.102,11.241-1.034,11.241,5.92
				c0,6.646-3.506,12.2-6.964,16.189c-0.611,0.705-1.13,2.01-1.13,2.943v2.258c0,0.933-0.655,2.067-1.462,2.533l-4.674,2.699
				c-0.808,0.466-1.462,0.088-1.462-0.844v-6.815C121.699,226.931,122.236,225.643,122.889,224.978z"/>
			<path id="XMLID_1712_" style="fill:#455A64;" d="M121.609,244.867c0-2.638,1.304-5.429,3.867-6.909
				c2.518-1.454,3.822-0.168,3.822,2.469c0,2.638-1.259,5.463-3.822,6.943C122.913,248.85,121.609,247.505,121.609,244.867z"/>
		</g>
	</g>
</g>
<g id="Support_character">
	<g id="XMLID_1740_">
		<g id="XMLID_1915_">
			<path id="XMLID_1919_" style="fill:#27DEBF;" d="M276.671,63.884l-3.71-2.143v0.003c-0.569-0.341-1.359-0.302-2.235,0.204
				l-91.365,52.745c-1.731,0.999-3.137,3.428-3.137,5.426l0.001,131.413c0,0.973,0.34,1.657,0.881,1.995l-0.002,0.008l0.039,0.023
				c0.003,0.002,0.005,0.003,0.008,0.005l3.697,2.136l89.878-55.103c1.731-0.999,3.134-3.429,3.134-5.428L276.671,63.884z"/>
			<path id="XMLID_1918_" style="opacity:0.15;" d="M180.788,255.67l-3.645-2.11h-0.009l-0.037-0.027v-0.009
				c-0.539-0.338-0.873-1.014-0.873-1.991l-0.001-131.413c0-1.05,0.398-2.231,1.02-3.254l3.709,2.138
				c-0.63,1.023-1.019,2.202-1.019,3.261l0.001,131.413C179.934,254.637,180.258,255.332,180.788,255.67z"/>
			<path id="XMLID_1917_" style="fill:#27DEBF;" d="M183.072,116.837l91.365-52.745c1.731-0.999,3.134-0.189,3.134,1.809v131.411
				c0,1.999-1.403,4.429-3.134,5.428l-91.364,52.745c-1.731,0.999-3.139,0.19-3.139-1.808l-0.001-131.413
				C179.934,120.266,181.341,117.837,183.072,116.837z"/>
			<path id="XMLID_1916_" style="opacity:0.4;fill:#FFFFFF;" d="M272.948,61.737l3.581,2.074c-0.557-0.256-1.288-0.192-2.101,0.283
				l-91.366,52.744c-0.813,0.466-1.553,1.251-2.11,2.165l-3.709-2.138c0.548-0.913,1.297-1.699,2.11-2.174l91.366-52.744
				c0.877-0.502,1.663-0.548,2.229-0.201V61.737z"/>
		</g>
		<path id="XMLID_1881_" style="fill:#FFFFFF;" d="M193.436,122.017l73.176-42.248c1.311-0.757,2.373-0.143,2.373,1.37v112.388
			c0,1.514-1.063,3.353-2.374,4.109l-73.173,42.171c-1.311,0.756-2.374,0.141-2.374-1.372l0-112.308
			C191.062,124.615,192.125,122.774,193.436,122.017z"/>
		<g id="XMLID_1085_">
			<path id="XMLID_1106_" style="fill:#37474F;" d="M251.421,146.749l0.737-0.606c-0.064-0.079-1.61-1.931-4.558-2.685l-0.236,0.925
				C249.994,145.056,251.406,146.732,251.421,146.749z"/>
			<path id="XMLID_765_" style="fill:#27DEBF;" d="M253.047,150.48l-1.503-1.478c-0.77-0.758-0.781-1.997-0.023-2.767l0,0
				c0.758-0.77,1.997-0.781,2.767-0.023l1.503,1.478c0.77,0.758,0.781,1.997,0.023,2.767l0,0
				C255.056,151.228,253.817,151.238,253.047,150.48z"/>
		</g>
		<g id="XMLID_1883_">
			<defs>
				<path id="XMLID_1742_" d="M193.436,122.017l73.176-42.248c1.311-0.757,2.373-0.143,2.373,1.37v112.388
					c0,1.514-1.063,3.353-2.374,4.109l-73.173,42.171c-1.311,0.756-2.374,0.141-2.374-1.372l0-112.308
					C191.062,124.615,192.125,122.774,193.436,122.017z"/>
			</defs>
			<clipPath id="XMLID_00000060732431904364006650000015021172837717034678_">
				<use xlink:href="#XMLID_1742_"  style="overflow:visible;"/>
			</clipPath>
			<g id="XMLID_1741_" style="clip-path:url(#XMLID_00000060732431904364006650000015021172837717034678_);">
				<g id="XMLID_1743_">
					<g id="XMLID_1747_">
						<g id="Character_boy_5_">
							<path id="XMLID_1882_" style="fill:#FFA8A7;" d="M266.364,184.661c1.969,3.358,3.38,5.776,3.38,5.776
								s22.139-11.74,23.386-13.273c1.247-1.534,1.172-4.656,1.356-6.33c0.309-2.803-0.715-5.211-0.861-6.223
								c-0.256-1.765,2.275-1.857,3.529,0.585c0.916,1.784,0.987,3.824,1.774,3.849c0.268,0.009,2.748-2.256,3.109-2.65
								c1.371-1.5,3.85-4.015,5.728-3.665c0.62,0.115,1.104,0.637,1.251,1.348c0.232,1.122,0.142,2.057,0.704,2.993
								c0.239,0.398,0.606,0.71,0.741,1.202c0.177,0.646-0.08,1.266-0.023,1.941c0.078,0.927,0.975,1.316,1.105,2.221
								c0.094,0.655-0.238,1.412-0.234,2.099c0.003,0.443,0.145,0.837,0.142,1.281c-0.005,0.872-0.557,1.754-1.14,2.464
								c-2.051,2.496-4.144,3.919-6.572,5.504c-2.018,1.318-4.681,2.49-6.963,3.731c-2.281,1.241-28.377,21.26-31.849,18.894
								c-1.418-0.966-5.158-5.765-9.089-11.107"/>
							<path id="XMLID_1880_" style="fill:#FFA8A7;" d="M254.98,195.99c-5.699-7.744-10.939-17.318-10.939-17.318
								c-3.99-11.198,0.528-18.659,0.528-18.659s5.75-1.778,10.541,5.778c2.11,3.328,7.63,12.691,11.255,18.871"/>
							<g id="XMLID_1864_">
								<path id="XMLID_1879_" style="fill:#455A64;" d="M234.468,160.184c0,0,6.338-2.571,10.45-2.309
									c4.112,0.262,7.157,1.436,10.173,6.285c4.027,6.473,10.69,17.652,10.69,17.652s-3.841,8.846-12.948,13.852l-12.278-18.527
									L234.468,160.184z"/>
							</g>
							<g id="Character_boy_6_">
								<g id="XMLID_1748_">
									<path id="XMLID_1863_" style="fill:#F0F0F0;" d="M214.354,171.381c-2.046,1.605-3.663,3.963-4.485,6.592
										c-0.732,2.342-1.363,5.551-1.363,9.654v21.057l-0.267,39.831c13.358,4.551,30.341,0.544,44.593-15.292
										c0,0-0.795-50.965-0.795-59.336c0-0.378-0.008-0.76-0.025-1.143c-0.518-11.819-10.713-17.292-20.755-11.619l-8.434,4.765
										L214.354,171.381L214.354,171.381z"/>
									<g id="XMLID_1749_">
										<g id="XMLID_1769_">
											<path id="XMLID_769_" style="fill:#263238;" d="M218.98,122.915c0,0-6.549-0.503-8.041,5.573
												c-1.33,5.418,8.549,26.823,8.332,26.465C219.053,154.596,218.98,122.915,218.98,122.915z"/>
											<path id="XMLID_764_" style="fill:#27DEBF;" d="M242.127,110.677c0,0-2.43-6.534-14.222-1.885
												c-6.015,2.372-8.256,9.796-8.256,9.796L242.127,110.677z"/>
											<path id="XMLID_763_" style="opacity:0.4;" d="M242.127,110.677c0,0-2.43-6.534-14.222-1.885
												c-6.015,2.372-8.256,9.796-8.256,9.796L242.127,110.677z"/>
											<path id="XMLID_1862_" style="fill:#263238;" d="M223.498,128.055c0,8.981,6.305,14.572,14.083,12.488
												c7.778-2.084,14.083-11.054,14.083-20.036c0-8.981-6.715-8.984-14.493-6.9
												C229.394,115.691,223.498,119.074,223.498,128.055z"/>
											<path id="XMLID_1850_" style="fill:#263238;" d="M216.146,142.269c0,0,2.075,10.701,2.907,12.327
												s2.551,1.691,2.551,1.691l-0.145-7.88L216.146,142.269z"/>
											<path id="XMLID_1835_" style="fill:#263238;" d="M218.751,125.445c0,0-2.235,0.157-3.977,2.68
												c-1.708,2.474-0.754,8.531,1.373,14.143l3.909-0.529L218.751,125.445z"/>
											<path id="XMLID_1830_" style="fill:#FFA8A7;" d="M221.227,141.43c-0.784,0.751-1.902-0.688-2.868-1.597
												c-0.966-0.909-4.122-1.659-5.696,2.592c-1.604,4.332,1.389,8.687,3.873,8.922c4.281,0.405,4.923-2.938,4.923-2.938
												l0.145,18.272c7.181,7.615,19.767-1.362,14.109-4.733l-0.012-5.423c0,0,3.879-0.36,5.771-1.204
												c3.148-1.405,5.129-4.804,6.084-8.995c1.534-6.731,2.116-11.99,0.815-24.072c-1.426-13.242-15.149-9.706-22.56-2.335
												C218.401,127.29,221.227,141.43,221.227,141.43z"/>
											<path id="XMLID_1778_" style="fill:#263238;" d="M221.227,142.952c-0.394,0.114-1.893-2.356-2.868-3.12
												c-1.352-1.058,0.392-14.387,0.392-14.387c-1.564-3.431,1.318-8.625,4.334-10.737c2.256-1.58,4.739-2.18,7.142-2.624
												c2.162-0.399,4.317-0.699,6.46-0.898c2.603-0.241,5.196-0.336,7.827-0.933c2.096-0.476,3.674-1.127,5.841-2.121
												c1.641-0.752,3,0.938,1.547,3.75c-0.692,1.34-2.672,4.688-5.297,6.657c-6.383,4.787-13.797,5.937-20.244,6.647
												c-1.454,0.16-1.765,1.87-2.549,6.526C223.123,135.8,222.552,142.568,221.227,142.952z"/>
											<path id="XMLID_1776_" style="fill:#263238;" d="M213.836,125.56l-4.739-1.668c0.673-1.748,2.279-2.792,3.587-2.331
												C213.993,122.022,214.509,123.812,213.836,125.56z"/>
											<path id="XMLID_1774_" style="fill:#F28F8F;" d="M235.702,156.524c0,0-7.027,0.248-9.484-0.602
												c-1.644-0.569-2.999-1.955-3.396-2.97c0,0,0.46,2.284,1.93,4.06c1.797,2.171,10.951,1.671,10.951,1.671L235.702,156.524z
												"/>
										</g>
										<g id="XMLID_1750_">
											<path id="XMLID_1766_" style="fill:#263238;" d="M234.013,135.975c0,0.933-0.631,1.857-1.408,2.063
												c-0.778,0.206-1.408-0.383-1.408-1.317c0-0.933,0.63-1.856,1.408-2.062C233.383,134.452,234.013,135.042,234.013,135.975
												z"/>
											<path id="XMLID_1765_" style="fill:#263238;" d="M231.752,129.848l-3.013,2.727c-0.444-0.88-0.13-2.205,0.702-2.958
												C230.273,128.865,231.308,128.968,231.752,129.848z"/>
											<path id="XMLID_1754_" style="fill:#F28F8F;" d="M235.066,146.926l3.215,0.532c-0.318,1.149-1.296,1.962-2.184,1.815
												C235.209,149.126,234.747,148.075,235.066,146.926z"/>
											<path id="XMLID_1753_" style="fill:#263238;" d="M246.932,127.212l-2.747-1.707c0.56-1.059,1.63-1.534,2.388-1.063
												C247.332,124.913,247.493,126.153,246.932,127.212z"/>
											<path id="XMLID_1752_" style="fill:#263238;" d="M245.726,132.374c0,0.933-0.631,1.856-1.408,2.062
												c-0.778,0.206-1.408-0.383-1.408-1.317c0-0.933,0.63-1.856,1.408-2.062C245.095,130.851,245.726,131.44,245.726,132.374z
												"/>
											<polygon id="XMLID_1751_" style="fill:#F28F8F;" points="238.766,132.933 238.929,142.75 243.977,140.114 											"/>
										</g>
									</g>
								</g>
							</g>
						</g>
					</g>
					<g id="XMLID_1745_">
						<path id="XMLID_1746_" style="fill:#FFA8A7;" d="M193.189,231.004c3.944-40.5,10.307-54.895,20.293-58.925
							c3.352,2.625,3.884,14.572,0.095,23.544c0,0-8.333,26.86-8.993,36.043c-0.579,8.068,0.106,19.242,0.948,25.616
							c0.149,1.129,0.698,2.032,1.491,2.576c2.13,1.458,1.941,3.5,3.44,5.472c1.173,1.544,2.296,1.835,2.05,2.396
							c-0.316,0.721-1.435,1.957-3.05,1.54c-0.813-0.21-1.372-0.62-2.618-1.496c0,0,0.643,2.882,2.641,6.102
							c2.708,4.363,2.503,7.253-4.119,8.068c-4.15,0.511-7.096-2.128-8.924-12.538c-0.527-2.999-1.806-8.404-2.298-12.285
							C192.733,245.966,192.554,237.523,193.189,231.004z"/>
					</g>
					<path id="XMLID_1744_" style="fill:#455A64;" d="M216.339,170.156c0,0-7.262,2.344-11.04,8.15
						c-3.778,5.806-7.479,15.211-10.322,31.992c0,0,4.403,6.338,16.413,1.451c0,0,5.693-21.364,6.362-29.845
						C218.481,172.653,216.339,170.156,216.339,170.156z"/>
				</g>
				<g id="XMLID_662_">
					<path id="XMLID_860_" style="fill:#27DEBF;" d="M223.088,110.976c-6.783,4.254-9.72,9.412-9.884,15.635
						c-0.135,5.152,0.321,10.768,0.507,12.794c-2.562,1.913-4.336,4.998-4.336,8.028c0,4.207,3.41,6.703,7.617,5.576
						c4.207-1.127,7.617-5.451,7.617-9.658c0-3.147-1.909-5.336-4.632-5.768c-0.016-0.1-1.444-8.959,0.056-17.911
						c1.509-9.003,18.331-14.19,22.094-8.995C241.023,106.187,232.533,105.052,223.088,110.976z"/>
					<path id="XMLID_762_" style="opacity:0.15;" d="M223.088,110.976c-6.783,4.254-9.72,9.412-9.884,15.635
						c-0.135,5.152,0.321,10.768,0.507,12.794c-2.562,1.913-4.336,4.998-4.336,8.028c0,4.207,3.41,6.703,7.617,5.576
						c4.207-1.127,7.617-5.451,7.617-9.658c0-3.147-1.909-5.336-4.632-5.768c-0.016-0.1-1.444-8.959,0.056-17.911
						c1.509-9.003,18.331-14.19,22.094-8.995C241.023,106.187,232.533,105.052,223.088,110.976z"/>
					<path id="XMLID_761_" style="fill:#27DEBF;" d="M220.643,144.414c0-2.017-1.635-3.213-3.651-2.673
						c-2.016,0.54-3.651,2.613-3.651,4.63s1.635,3.213,3.651,2.673C219.008,148.503,220.643,146.431,220.643,144.414z"/>
				</g>
			</g>
		</g>
		<g id="XMLID_1732_">
			<path id="XMLID_1083_" style="fill:#27DEBF;" d="M163.057,208.658c-0.18,0.18-0.33,0.35-0.45,0.52c0,0.01-0.01,0.02-0.01,0.02
				c-0.27,0.35-0.45,0.67-0.53,0.96c0,0,0.01,0.01,0,0.01c-0.08,0.24-0.09,0.46-0.03,0.65c0.03,0.15,0.1,0.29,0.21,0.39
				c0.05,0.06,0.11,0.11,0.18,0.16l-3.67-2.12c-0.16-0.09-0.27-0.21-0.35-0.35c-0.13-0.24-0.15-0.53-0.05-0.88c0.01,0,0-0.01,0-0.01
				c0.06-0.21,0.18-0.45,0.34-0.7c0.16-0.25,0.38-0.52,0.64-0.8L163.057,208.658z"/>
			<path id="XMLID_1787_" style="fill:#27DEBF;" d="M163.091,208.622c-1.915,1.99-1.243,3.346,1.5,3.029l15.342-1.772v-18.762
				L163.091,208.622z"/>
			<path id="XMLID_1825_" style="fill:#27DEBF;" d="M163.087,208.617c-1.21,1.26-1.38,2.26-0.66,2.75l-3.67-2.12
				c-0.77-0.48-0.6-1.5,0.62-2.78l16.85-17.5l3.71,2.15L163.087,208.617z"/>
			<path id="XMLID_1097_" style="opacity:0.15;" d="M163.057,208.658c-0.18,0.18-0.33,0.35-0.45,0.52c0,0.01-0.01,0.02-0.01,0.02
				c-0.26,0.35-0.44,0.67-0.53,0.96c0,0,0.01,0.01,0,0.01c-0.07,0.24-0.08,0.46-0.03,0.65c0.03,0.15,0.1,0.28,0.21,0.39
				c0.05,0.06,0.11,0.11,0.18,0.16l-3.67-2.12c-0.16-0.09-0.27-0.21-0.35-0.35c-0.13-0.24-0.15-0.53-0.05-0.88c0.01,0,0-0.01,0-0.01
				c0.07-0.21,0.18-0.45,0.34-0.7c0.16-0.25,0.38-0.52,0.64-0.8L163.057,208.658z"/>
			<path id="XMLID_770_" style="opacity:0.4;fill:#FFFFFF;" d="M179.937,191.117l-16.85,17.5c-0.01,0.01-0.03,0.03-0.03,0.04
				l-3.72-2.15c0.01-0.01,0.03-0.03,0.04-0.04l16.85-17.5L179.937,191.117z"/>
		</g>
		<path id="XMLID_1884_" style="fill:#FFA8A7;" d="M266.364,184.661c1.969,3.358,3.38,5.776,3.38,5.776s22.139-11.74,23.386-13.273
			c1.247-1.534,1.172-4.656,1.356-6.33c0.309-2.803-0.715-5.211-0.861-6.223c-0.31-2.148,2.785-1.652,3.765-0.798
			c0.707,0.616,1.101,1.504,1.587,2.306c0.486,0.802,1.383,3.409,2.306,3.576c0.719,0.13,2.151-0.897,2.734-1.337
			c2.432-1.836,3.935-4.391,5.804-6.718c0.375-0.467,0.779-0.955,1.342-1.16c0.915-0.334,1.904,0.182,2.721,0.712
			c0.751,0.487,1.503,1.022,1.986,1.775c0.344,0.536,0.534,1.156,0.677,1.777c0.973,4.236-1.177,7.821-3.749,11.026
			c-2.534,3.158-5.675,5.807-9.057,8.014c-2.018,1.318-4.681,2.49-6.963,3.731c-2.281,1.241-27.182,22.07-30.655,19.704
			c-1.417-0.966-7.211-5.887-11.142-11.229"/>
	</g>
</g>
<g id="Character">
	<g id="XMLID_1733_">
		<path id="XMLID_772_" style="fill:#FFA8A7;" d="M429.683,148.534c7.954,0,12.197,2.397,15.522,9.786
			c3.18,7.067,13.046,27.577,12.556,32.55c-0.49,4.973-20.801,26.081-20.801,26.081l-5.793-7.036l12.563-21.107l-12.326-17.783
			L429.683,148.534z"/>
		<g id="Character_11_">
			<g id="XMLID_1738_">
				<g id="XMLID_2078_">
					<g id="XMLID_2081_">
						<path id="XMLID_2082_" style="fill:#263238;" d="M410.261,366.16c0,0,0.902,2.734,1.388,5.125
							c0.386,1.901,0.94,5.077,0.274,6.507c-0.666,1.43-3.262,2.352-7.287,2.322c-2.607-0.02-6.67,1.75-9.451,3.303
							c-2.873,1.603-8.848,2.242-11.887,1.885c-3.581-0.42-7.291-2.497-7.87-3.98c-0.579-1.483-1.067-3.516,8.63-6.619
							c0.08-0.026,11.732-3.823,15.816-8.329L410.261,366.16z"/>
					</g>
					<path id="XMLID_2092_" style="fill:#FFA8A7;" d="M410.261,366.428l-1.85-0.23l-8.536,0.175
						c-4.084,4.506-15.736,8.304-15.816,8.329c-0.551,0.176-1.065,0.349-1.552,0.518c-1.682,1.358-0.258,3.671,3.746,4.027
						c4.005,0.356,16.464-3.839,19.223-5.168C408.234,372.75,410.261,370.094,410.261,366.428z"/>
					<g id="XMLID_1888_">
						<path id="XMLID_1889_" style="fill:#FFA8A7;" d="M410.261,362.762c0,0-0.011,2.333,0,3.666
							c0.012,1.333-1.563,3.32-5.639,3.174c-2.863-0.102-4.861-0.872-4.748-3.23v-3.398L410.261,362.762z"/>
					</g>
					<g id="XMLID_2089_">
						<path id="XMLID_2090_" style="fill:#263238;" d="M437.635,350.829c0.733,0.301,0.883,1.717,0.919,4.527
							c0.028,2.126,0.382,5.846-2.125,6.519c-2.507,0.673-6.142,0.197-7.682-1.848c-1.923-2.552-3.208-4.788-5.966-7.913
							c-2.392-2.711-4.99-5.252-5.885-8.987c-0.808-3.376-0.021-4.81,2.292-5.723c2.193-0.865,4.401-0.163,7.602,2.507
							c1.098,0.674,2.086,1.271,2.845,1.505C431.743,342.067,436.902,350.529,437.635,350.829z"/>
					</g>
					<g id="XMLID_2087_">
						<path id="XMLID_2088_" style="fill:#FFA8A7;" d="M437.705,348.23l-0.093,3.446c0,0-2.307,4.513-8.715,0.001
							c-0.142-0.336-0.716-7.004-0.716-7.004L437.705,348.23z"/>
					</g>
					<path id="XMLID_2086_" style="fill:#FFA8A7;" d="M429.637,341.417c-0.759-0.235-1.748-0.832-2.845-1.505l0,0
						c-2.584-0.828-8.027,0.13-5.574,3.884c2.638,4.037,5.353,6.133,7.681,7.882c2.899,1.429,3.914-0.342,3.914-0.342l-1.025-8.082
						C430.951,342.299,430.188,341.587,429.637,341.417z"/>
					<g id="XMLID_2079_">
						<path id="XMLID_2080_" style="fill:#27DEBF;" d="M442.386,300.547c-1.274-11.303-3.729-17.838-3.729-17.838
							s2.169-15.215,3.877-29.814c4.01-34.266,1.337-34.819-3.508-46.732c0,0-43.929-5.651-45.766,12.618
							c-2.288,22.753-1.255,66.869-0.867,74.939c0.388,8.07,1.039,11.718,3.434,28.624c1.823,12.863,3.552,40.993,3.552,40.993
							c5.761,3.318,11.304-0.576,11.304-0.576s5.505-34.595,5.377-43.898c-0.156-11.36-2.977-20.378-2.977-20.378
							s3.733-37.078,4.689-42.971c0,0,1.057,11.823,1.445,19.893c0.388,8.07,2.572,15.827,4.499,30.848
							c1.671,13.031,4.449,40.239,4.449,40.239c5.761,3.318,9.783,1.811,9.783,1.811S443.66,311.85,442.386,300.547z"/>
					</g>
				</g>
				<g id="XMLID_1913_">
					<g id="XMLID_1914_">
						<polygon id="XMLID_2053_" style="fill:#FFA8A7;" points="411.087,141.131 412.698,158.208 427.699,157.259 426.498,138.32 
													"/>
					</g>
				</g>
				<g id="XMLID_1890_">
					<g id="XMLID_1891_">
						<path id="XMLID_1912_" style="fill:#455A64;" d="M441.179,155.777c-1.524-4.522-4.632-7.167-11.495-7.243l-2.532,0.079
							c-0.482,2.518-7.869,4.559-15.171,1.982c-1.029,0.265-3.852,0.788-5.443,0.999l-3.494,0.51
							c-5.317,1.739-7.665,10.972-8.175,25.606c-0.51,14.634-2.699,45.935-2.699,45.935s11.43,6.125,29.472,3.755
							c16.145-2.121,22.425-11.671,21.869-10.45c0,0-2.464-11.612-8.337-23.452C443.675,172.61,443.44,162.487,441.179,155.777z"/>
					</g>
				</g>
				<path id="XMLID_778_" style="fill:#37474F;" d="M412.701,227.937c2.756,0.032,5.742-0.117,8.94-0.537
					c14.722-1.934,21.238-10.041,21.852-10.53c-0.217-0.993-2.715-12.075-8.32-23.372c4.296-10.555,6.359-18.358,7.06-24.364
					c-0.701,4.378-7.174,21.339-15.641,26.426c0,0,4.777,0.743,8.866,6.355C439.54,207.518,436.191,226.733,412.701,227.937z"/>
				<path id="XMLID_1734_" style="fill:#FFA8A7;" d="M406.537,151.594c-7.045,0.885-13.118,2.149-15.688,9.07
					c-4.714,12.699-11.206,21.121-15.308,25.515c-4.382,4.694-22.358,13.672-26.407,13.017c-4.048-0.655-7.703-6.437-9.788-5.233
					c-2.085,1.204,2.481,5.317,2.234,6.333c-0.247,1.016-7.554-1.1-11.025-3.55c-3.471-2.45-5.502,4.588-1.016,9.848
					c4.486,5.26,12.919,5.669,22.076,3.831c9.157-1.838,25.908-7.261,32.555-13.471c8.722-8.148,10.306-12.577,14.089-19.591
					C410.34,167.983,406.537,151.594,406.537,151.594z"/>
				<g id="XMLID_1739_">
					<g id="XMLID_1886_">
						<path id="XMLID_1887_" style="fill:#263238;" d="M403.242,119.921c0,0-5.667-6.754-1.224-13.334
							c5.237-7.753,14.464-10.378,25.857-6.991c5.647,1.679,13.933,9.478,14.352,20.409c0.323,8.431-23.316,14.006-22.935,19.786
							L403.242,119.921z"/>
					</g>
					<g id="XMLID_1829_">
						<path id="XMLID_1885_" style="fill:#F28F8F;" d="M399.959,122.392c0,0-3.322,5.022-2.889,5.553
							c0.434,0.531,2.545,1.097,2.545,1.097L399.959,122.392z"/>
					</g>
					<g id="XMLID_1822_">
						<path id="XMLID_1823_" style="fill:#FFA8A7;" d="M410.11,106.479c-3.229,1.668-8.81,4.752-10.246,16.647
							c-1.473,12.212,1.245,16.455,2.91,18.056c1.124,1.08,6.923,1.472,9.947,0.533c3.785-1.175,11.983-5.227,15.827-11.529
							c4.521-7.415,5.456-17.298,0.236-21.173C421.44,103.559,412.843,105.067,410.11,106.479z"/>
					</g>
					<g id="XMLID_1784_">
						<path id="XMLID_1821_" style="fill:#263238;" d="M409.156,106.989c0,0-2.814,11.14,0.558,18.181c0,0,1.974-4.347,5.711-3.1
							c3.762,1.256,3.417,6.271,0.457,8.835c-2.961,2.564-5.833,1.238-5.833,1.238s0.102,6.163,5.37,8.604
							c0,0,11.021,5.274,20.974-5.368c9.031-9.656,7.867-26.954-5.447-31.386C417.635,99.563,409.156,106.989,409.156,106.989z"/>
					</g>
					<path id="XMLID_1735_" style="fill:#263238;" d="M453.938,153.966L453.938,153.966c-8.799,0-15.931-7.133-15.931-15.931
						v-20.478h0c8.799,0,15.931,7.133,15.931,15.931V153.966z"/>
					<path id="XMLID_1782_" style="fill:#263238;" d="M400.585,101.982c-4.958,5.046-5.239,19.608,9.129,23.188l9.402-25.786
						C413.64,95.825,405.009,97.479,400.585,101.982z"/>
					<path id="XMLID_1780_" style="fill:#263238;" d="M408.265,129.161c-1.475-0.533-2.24-2.162-1.706-3.637
						c0.533-1.476,2.161-2.24,3.637-1.706L408.265,129.161z"/>
				</g>
			</g>
			<path id="XMLID_1737_" style="opacity:0.1;" d="M417.772,255.515l2.392-15.291c0,0,6.483-0.451,13.575-4.722
				c0,0-2.984,4.508-10.894,6.385l-2.442,17.714l-0.984,18.552L417.772,255.515z"/>
		</g>
	</g>
</g>
</svg>
